<svg id="svg" version="1.1" xmlns="http://www.w3.org/2000/svg" xmlns:xlink="http://www.w3.org/1999/xlink" width="400" height="400" viewBox="0, 0, 400,400"><g id="svgg"><path id="path0" d="M0.000 200.000 L 0.000 400.000 200.000 400.000 L 400.000 400.000 400.000 200.000 L 400.000 0.000 200.000 0.000 L 0.000 0.000 0.000 200.000 M270.513 145.022 C 270.831 145.144,271.827 146.989,272.727 149.122 C 274.227 152.679,275.586 156.103,281.880 172.200 C 283.084 175.280,284.684 179.303,285.435 181.140 C 287.623 186.492,287.467 186.800,282.567 186.800 C 278.931 186.800,278.394 186.373,277.207 182.528 C 275.709 177.680,276.414 178.000,267.240 178.000 C 258.137 178.000,258.954 177.642,257.418 182.306 C 255.992 186.639,255.806 186.800,252.204 186.800 C 246.784 186.800,246.729 188.291,252.764 171.700 C 254.974 165.624,262.336 147.214,263.204 145.592 C 263.628 144.800,268.870 144.392,270.513 145.022 M117.920 145.680 C 118.591 146.351,118.519 148.203,117.800 148.800 C 116.806 149.625,117.072 150.708,118.337 150.986 C 149.769 157.890,166.578 200.726,148.963 229.034 C 147.993 230.592,147.200 232.002,147.200 232.166 C 147.200 233.026,139.703 243.244,138.923 243.447 C 136.286 244.134,136.661 242.769,140.721 236.895 C 151.881 220.749,155.273 208.209,152.595 193.002 C 149.359 174.624,134.439 157.599,118.200 153.754 C 114.000 152.760,113.600 152.556,113.600 151.409 C 113.600 150.854,113.422 150.400,113.205 150.400 C 112.766 150.400,107.949 153.228,106.419 154.384 L 105.438 155.125 107.986 157.863 C 110.942 161.038,111.343 161.293,110.937 159.739 C 110.016 156.218,110.446 156.052,115.562 157.952 C 125.657 161.701,137.753 172.097,142.231 180.875 C 148.200 192.573,148.104 209.168,141.990 222.600 C 137.479 232.512,132.437 241.261,130.800 242.018 C 130.470 242.170,129.300 242.608,128.200 242.990 C 121.235 245.410,112.037 244.606,108.400 241.259 L 107.000 239.971 107.199 235.485 C 107.878 220.169,107.440 216.242,103.554 202.840 C 101.427 195.501,101.426 192.858,103.552 186.235 C 105.337 180.672,105.954 177.208,105.022 177.982 C 104.705 178.245,103.961 179.932,103.368 181.730 C 100.219 191.281,95.617 194.481,88.075 192.365 C 82.601 190.829,82.904 191.798,89.668 197.449 C 99.458 205.628,100.413 207.667,100.695 221.000 C 100.993 235.055,99.040 243.600,95.528 243.600 C 93.356 243.600,93.119 242.754,93.834 237.556 C 95.348 226.559,94.845 213.233,92.761 209.107 C 91.252 206.118,83.556 198.864,78.844 195.990 C 74.188 193.148,73.354 191.977,72.379 186.911 C 72.055 185.227,71.690 184.368,71.250 184.254 C 70.893 184.161,69.737 183.861,68.683 183.586 C 65.127 182.659,64.722 180.199,67.028 173.530 C 67.814 171.259,68.897 168.036,69.434 166.368 C 70.923 161.751,70.589 161.960,76.820 161.751 C 82.201 161.570,84.620 161.152,92.600 159.021 C 94.800 158.434,98.130 157.633,100.000 157.241 C 102.519 156.714,103.359 156.383,103.240 155.965 C 102.474 153.256,102.786 152.956,111.800 147.718 C 116.692 144.876,117.010 144.770,117.920 145.680 M200.849 146.275 C 219.397 151.800,218.504 182.418,199.680 186.357 C 197.131 186.890,179.839 186.956,178.867 186.436 C 178.114 186.033,177.813 146.827,178.554 145.660 C 179.137 144.741,197.392 145.246,200.849 146.275 M244.275 145.514 C 245.308 146.171,246.137 150.408,245.450 151.519 C 245.233 151.870,242.788 152.000,236.425 152.000 C 226.012 152.000,226.729 151.605,226.886 157.258 L 227.000 161.400 235.738 161.439 C 245.693 161.483,245.218 161.301,244.904 164.954 C 244.557 168.979,245.116 168.744,236.465 168.499 C 232.311 168.381,228.437 168.404,227.856 168.550 L 226.800 168.815 226.800 173.634 C 226.800 180.356,226.439 180.005,233.314 179.978 C 236.441 179.967,240.433 179.807,242.184 179.623 C 245.531 179.273,246.221 179.355,246.523 180.143 C 246.734 180.693,245.865 185.648,245.436 186.342 C 245.011 187.029,219.369 186.989,218.924 186.300 C 218.437 185.548,218.509 145.863,218.998 145.506 C 219.530 145.117,243.663 145.125,244.275 145.514 M297.053 145.506 C 297.302 145.668,300.092 149.234,303.253 153.432 C 318.466 173.635,318.220 173.335,318.634 172.255 C 318.769 171.905,318.697 166.097,318.476 159.347 C 317.976 144.121,317.656 145.216,322.620 145.206 C 327.142 145.198,326.777 143.259,326.527 165.953 C 326.276 188.659,326.647 186.800,322.368 186.800 C 318.920 186.800,319.795 187.689,308.793 173.000 C 303.684 166.180,299.063 160.150,298.523 159.600 L 297.541 158.600 297.668 172.316 C 297.814 188.088,298.180 186.788,293.600 186.788 C 289.280 186.788,289.467 187.112,289.646 179.943 C 289.731 176.564,289.758 167.508,289.708 159.819 C 289.637 149.104,289.731 145.765,290.108 145.525 C 290.731 145.129,296.447 145.113,297.053 145.506 M186.900 152.245 C 186.514 152.416,186.400 155.564,186.400 166.026 L 186.400 179.585 187.396 179.835 C 189.703 180.414,197.737 179.801,199.418 178.918 C 208.916 173.927,208.536 157.479,198.820 153.056 C 197.026 152.239,188.257 151.642,186.900 152.245 M265.258 159.797 C 262.774 165.917,261.548 169.708,261.930 170.090 C 262.796 170.956,272.193 170.247,272.327 169.306 C 272.454 168.410,267.668 155.600,267.206 155.600 C 267.071 155.600,266.194 157.488,265.258 159.797 M99.459 176.900 C 99.088 179.991,99.146 182.319,99.601 182.600 C 100.302 183.034,100.668 181.097,100.487 177.900 C 100.285 174.319,99.823 173.869,99.459 176.900 M312.525 204.591 C 327.816 207.831,333.779 228.349,323.008 240.662 C 315.281 249.495,301.277 249.425,293.648 240.515 C 280.387 225.026,293.269 200.511,312.525 204.591 M202.311 205.423 C 205.050 207.341,203.721 210.444,193.414 226.200 C 189.164 232.696,185.600 238.520,185.600 238.967 C 185.600 239.380,195.129 239.214,199.043 238.734 C 204.027 238.121,204.212 238.271,203.573 242.429 C 202.912 246.730,204.035 246.401,190.051 246.394 C 176.143 246.387,176.931 246.569,176.341 243.224 C 175.783 240.051,175.381 240.884,184.082 227.178 C 193.393 212.512,193.453 212.406,192.761 211.967 C 192.452 211.772,188.937 211.609,184.949 211.606 C 176.585 211.599,176.714 211.652,177.228 208.400 C 177.811 204.717,177.509 204.800,190.355 204.800 C 199.724 204.800,201.558 204.896,202.311 205.423 M216.000 205.196 C 216.500 205.515,216.600 206.895,216.600 213.490 L 216.600 221.400 226.600 221.400 L 236.600 221.400 236.705 213.600 C 236.827 204.495,236.682 204.800,240.903 204.800 C 245.659 204.800,245.320 203.696,244.997 218.134 C 244.818 226.156,244.880 233.133,245.171 237.703 C 245.751 246.782,245.933 246.400,241.010 246.400 C 236.291 246.400,236.607 247.058,236.603 237.200 L 236.600 229.000 227.400 228.887 C 222.340 228.825,217.777 228.878,217.260 229.005 L 216.319 229.236 216.610 237.215 C 216.835 243.363,216.787 245.334,216.402 245.798 C 215.764 246.566,209.016 246.673,208.552 245.922 C 207.910 244.884,208.150 205.557,208.800 205.176 C 209.611 204.701,215.250 204.716,216.000 205.196 M258.667 205.335 C 258.850 205.519,259.000 212.455,259.000 220.748 C 259.000 239.819,259.030 239.881,268.156 239.532 C 276.222 239.223,276.112 239.487,276.030 220.721 C 275.954 203.581,275.653 204.800,279.973 204.800 C 284.861 204.800,284.478 203.181,284.100 222.212 C 283.725 241.076,283.694 241.241,279.963 243.883 C 273.143 248.714,255.168 247.160,252.460 241.506 C 250.717 237.866,249.546 206.166,251.119 205.201 C 251.901 204.720,258.166 204.832,258.667 205.335 M305.558 212.139 C 297.935 214.242,293.909 224.282,297.571 232.054 C 302.995 243.565,318.156 241.111,320.436 228.353 C 322.178 218.604,314.086 209.785,305.558 212.139 " stroke="none" fill="#fbfbfb" fill-rule="evenodd"></path><path id="path1" d="M263.723 146.100 C 262.571 147.635,248.800 183.725,248.800 185.208 C 248.800 185.930,249.078 186.000,251.951 186.000 C 255.769 186.000,255.875 185.894,257.206 180.728 C 258.116 177.194,258.101 177.200,267.200 177.200 C 276.518 177.200,276.139 177.035,277.600 181.724 C 278.875 185.817,279.100 186.000,282.862 186.000 C 285.698 186.000,286.000 185.926,286.000 185.226 C 286.000 184.527,282.577 175.397,279.616 168.200 C 278.983 166.660,276.804 161.170,274.774 156.000 C 270.316 144.644,271.013 145.600,267.200 145.600 C 265.185 145.600,263.966 145.775,263.723 146.100 M114.800 146.771 C 111.507 148.525,104.168 153.192,103.809 153.760 C 103.113 154.860,104.278 155.552,105.026 154.484 C 105.367 153.998,105.796 153.600,105.981 153.600 C 106.166 153.600,108.035 152.520,110.135 151.200 C 114.072 148.725,115.532 148.215,114.991 149.500 C 113.992 151.877,114.692 152.790,117.526 152.806 C 123.956 152.841,138.654 163.245,144.667 172.019 C 155.503 187.831,157.197 210.383,148.692 225.600 C 146.429 229.648,144.280 233.073,141.303 237.372 C 139.487 239.997,138.000 242.292,138.000 242.472 C 138.000 243.349,139.270 242.625,140.274 241.176 C 140.893 240.282,142.300 238.305,143.400 236.781 C 144.500 235.257,145.842 233.153,146.381 232.105 C 146.921 231.057,147.882 229.424,148.518 228.475 C 153.942 220.376,156.765 204.805,154.842 193.600 C 151.445 173.809,138.453 158.323,120.260 152.379 C 115.803 150.922,115.602 150.735,116.778 149.144 C 118.509 146.803,117.349 145.413,114.800 146.771 M178.947 146.593 C 178.803 146.969,178.798 152.255,178.937 158.339 C 179.076 164.422,179.040 172.910,178.857 177.200 C 178.631 182.475,178.658 185.173,178.939 185.534 C 179.734 186.556,199.638 185.985,202.486 184.858 C 218.231 178.626,216.931 151.631,200.660 146.909 C 197.305 145.935,179.300 145.673,178.947 146.593 M219.126 146.500 C 219.039 146.775,219.106 151.050,219.276 156.000 C 219.450 161.087,219.414 169.330,219.192 174.958 C 218.902 182.313,218.918 185.060,219.253 185.464 C 219.623 185.910,222.046 185.992,232.354 185.906 L 245.000 185.800 245.509 183.229 C 246.188 179.794,246.278 179.836,239.488 180.406 C 226.542 181.493,226.000 181.229,226.000 173.836 C 226.000 167.520,225.224 168.000,235.433 168.000 L 243.907 168.000 244.189 165.369 C 244.551 161.988,245.292 162.252,235.377 162.224 C 225.257 162.196,226.015 162.624,226.006 156.929 C 226.000 153.011,226.084 152.668,227.329 151.535 C 227.368 151.499,231.360 151.364,236.200 151.235 L 245.000 151.000 244.859 149.000 C 244.637 145.837,245.359 146.000,231.594 146.000 C 222.099 146.000,219.249 146.114,219.126 146.500 M290.499 156.683 C 290.622 162.577,290.580 171.360,290.406 176.200 C 290.030 186.584,289.843 186.073,293.962 185.916 L 297.000 185.800 297.000 171.836 C 297.000 156.042,296.941 156.285,299.832 160.081 C 300.888 161.466,305.620 167.730,310.350 174.000 C 320.364 187.276,319.084 186.032,322.600 185.903 L 325.400 185.800 325.689 166.400 C 325.849 155.730,325.899 146.775,325.802 146.500 C 325.680 146.156,324.622 146.000,322.413 146.000 C 320.143 146.000,319.182 146.147,319.137 146.500 C 319.103 146.775,319.058 153.074,319.037 160.497 C 319.014 168.772,318.851 174.034,318.615 174.097 C 318.222 174.202,316.342 171.807,303.987 155.472 L 296.974 146.200 293.624 146.083 L 290.274 145.966 290.499 156.683 M198.338 152.214 C 207.059 155.201,209.883 167.713,203.728 176.098 C 201.140 179.624,196.895 181.073,190.189 180.721 C 185.190 180.459,185.572 181.723,185.695 165.858 L 185.800 152.223 186.800 151.695 C 188.239 150.934,195.564 151.264,198.338 152.214 M268.599 156.800 C 270.426 160.982,272.844 167.560,273.072 168.968 C 273.379 170.857,272.438 171.200,266.948 171.200 C 260.345 171.200,260.185 170.871,263.152 163.351 C 264.009 161.178,265.135 158.271,265.655 156.891 C 266.794 153.866,267.311 153.850,268.599 156.800 M111.200 157.974 C 111.200 158.400,111.392 159.252,111.626 159.869 C 111.990 160.827,111.930 161.090,111.208 161.674 L 110.364 162.358 111.828 163.979 C 114.195 166.598,115.207 165.915,114.164 162.404 C 113.340 159.628,113.839 159.006,116.000 160.121 C 116.550 160.405,118.080 161.070,119.400 161.599 C 125.858 164.188,135.663 173.460,139.706 180.800 C 142.237 185.394,144.799 193.693,144.800 197.300 C 144.800 197.905,144.980 198.400,145.200 198.400 C 146.841 198.400,144.539 187.036,141.786 181.553 C 139.512 177.022,132.199 168.851,128.107 166.267 C 127.238 165.719,126.274 165.024,125.964 164.722 C 124.368 163.168,119.328 160.292,115.658 158.839 C 110.817 156.924,111.200 156.998,111.200 157.974 M107.979 159.778 C 109.120 160.992,109.374 161.073,108.825 160.047 C 108.604 159.633,108.106 159.173,107.721 159.025 C 107.198 158.824,107.263 159.016,107.979 159.778 M72.880 168.480 C 72.616 168.744,72.394 169.419,72.386 169.980 C 72.379 170.541,71.818 172.530,71.141 174.400 C 69.277 179.543,69.300 179.657,72.307 180.207 C 75.147 180.727,75.644 181.199,76.383 184.084 C 76.995 186.471,77.834 186.514,78.622 184.200 C 79.345 182.075,81.611 180.000,83.207 180.000 C 86.839 180.000,88.115 178.187,85.600 176.600 C 83.799 175.463,83.613 174.625,84.622 172.208 C 86.158 168.533,84.737 167.281,80.531 168.604 C 78.566 169.222,78.252 169.225,76.528 168.637 C 74.289 167.875,73.519 167.841,72.880 168.480 M79.200 170.082 C 80.190 170.095,81.518 169.966,82.150 169.796 C 83.299 169.488,83.300 169.490,83.054 171.044 C 82.285 175.910,82.282 175.769,83.159 176.563 C 84.432 177.715,84.186 178.300,82.300 178.603 C 80.177 178.945,79.057 179.642,78.142 181.191 C 77.223 182.747,76.965 182.713,76.387 180.961 C 75.882 179.431,74.201 178.400,72.213 178.400 C 70.910 178.400,70.945 177.854,72.400 175.400 C 73.052 174.300,73.589 172.830,73.593 172.133 C 73.606 169.838,73.922 169.496,75.757 169.793 C 76.661 169.940,78.210 170.070,79.200 170.082 M98.233 172.764 C 97.768 173.277,97.494 174.389,97.396 176.161 C 97.210 179.527,97.132 179.630,94.963 179.333 C 91.118 178.806,89.901 181.082,92.900 183.190 C 93.835 183.848,94.837 184.587,95.126 184.833 C 96.201 185.747,95.916 184.920,94.569 183.218 C 93.805 182.252,93.240 181.279,93.315 181.056 C 93.757 179.729,95.453 181.004,96.850 183.714 C 97.577 185.123,97.561 186.271,96.822 185.814 C 96.645 185.704,96.588 186.392,96.695 187.343 C 97.036 190.369,93.769 191.875,89.570 190.628 C 85.555 189.436,82.400 190.136,82.400 192.220 C 82.400 193.120,88.210 198.816,92.051 201.683 C 93.878 203.046,97.808 209.559,98.401 212.205 C 99.588 217.503,98.763 234.398,97.063 239.600 C 96.527 241.240,96.419 242.400,96.802 242.400 C 99.183 242.400,101.135 219.065,99.377 211.609 C 98.077 206.093,94.333 201.630,85.505 195.077 C 81.513 192.113,83.070 190.133,88.232 191.609 C 95.198 193.601,99.135 190.997,102.455 182.200 C 106.522 171.426,108.012 175.140,104.220 186.600 C 101.983 193.361,102.012 195.829,104.410 203.200 C 105.497 206.542,106.651 211.062,107.628 215.800 C 108.208 218.617,108.337 228.335,107.877 234.600 C 107.546 239.099,107.843 240.717,108.820 239.740 C 109.530 239.030,109.848 220.857,109.211 217.372 C 108.635 214.223,106.584 206.251,105.050 201.200 C 103.357 195.628,103.730 192.374,107.156 182.800 C 109.410 176.501,107.788 171.678,104.600 175.200 C 103.591 176.315,102.980 176.200,102.394 174.786 C 101.411 172.411,99.425 171.446,98.233 172.764 M100.959 174.700 C 101.839 177.589,100.912 184.800,99.660 184.800 C 98.937 184.800,98.302 180.849,98.580 178.081 C 98.937 174.520,99.118 174.000,100.000 174.000 C 100.410 174.000,100.842 174.315,100.959 174.700 M303.800 205.355 C 289.643 208.802,284.185 227.567,293.816 239.676 C 301.312 249.100,315.980 248.824,323.379 239.120 C 335.298 223.490,322.186 200.878,303.800 205.355 M178.396 206.610 C 178.185 207.165,177.965 208.380,177.906 209.310 L 177.800 211.000 185.716 211.109 C 192.129 211.196,193.673 211.325,193.851 211.788 C 194.068 212.353,191.455 216.891,186.475 224.600 C 185.054 226.800,182.273 231.196,180.296 234.369 L 176.701 240.139 176.910 242.442 C 177.025 243.709,177.238 244.938,177.383 245.173 C 177.561 245.461,181.667 245.600,189.980 245.600 L 202.313 245.600 202.543 244.683 C 202.670 244.179,202.897 242.711,203.049 241.421 L 203.325 239.075 200.162 239.336 C 185.061 240.582,183.717 240.330,186.013 236.683 C 186.735 235.537,188.171 233.250,189.204 231.600 C 190.237 229.950,192.176 226.890,193.513 224.800 C 203.028 209.920,202.581 210.711,202.563 208.777 C 202.529 205.353,203.474 205.600,190.403 205.600 L 178.780 205.600 178.396 206.610 M209.145 205.684 C 209.115 205.748,209.065 214.755,209.034 225.700 L 208.977 245.600 212.489 245.600 L 216.000 245.600 216.000 237.214 C 216.000 226.972,214.808 228.000,226.685 228.000 C 238.815 228.000,237.717 227.054,237.539 237.350 L 237.400 245.400 241.000 245.400 L 244.600 245.400 244.535 241.400 C 244.455 236.510,244.459 214.827,244.541 209.600 L 244.600 205.800 241.100 205.684 C 238.473 205.598,237.586 205.697,237.542 206.084 C 237.510 206.368,237.531 209.958,237.588 214.061 C 237.688 221.228,237.660 221.540,236.872 221.961 C 235.839 222.514,217.263 222.555,216.400 222.006 C 215.900 221.688,215.800 220.310,215.800 213.712 L 215.800 205.800 212.500 205.684 C 210.685 205.620,209.175 205.620,209.145 205.684 M251.347 206.193 C 250.744 207.766,251.854 238.560,252.577 240.295 C 254.381 244.625,260.129 246.420,270.200 245.795 C 283.144 244.993,283.447 244.178,283.767 209.400 L 283.800 205.800 280.300 205.684 C 277.167 205.581,276.798 205.644,276.781 206.284 C 276.771 206.678,276.779 213.304,276.799 221.009 C 276.842 237.462,276.743 237.967,273.167 239.484 C 270.188 240.747,262.837 240.380,260.805 238.865 C 258.206 236.928,258.200 236.889,258.200 220.600 L 258.200 205.800 254.894 205.684 C 252.191 205.589,251.544 205.682,251.347 206.193 M143.644 212.800 C 141.143 220.683,136.130 231.451,132.340 237.082 C 130.531 239.769,129.823 241.604,130.836 240.978 C 134.096 238.963,145.129 215.157,144.718 211.027 C 144.615 209.998,144.442 210.285,143.644 212.800 M312.544 212.013 C 318.556 214.263,322.070 220.853,321.116 228.089 C 319.649 239.211,306.859 244.066,299.665 236.232 C 289.747 225.429,299.480 207.125,312.544 212.013 " stroke="none" fill="#0e1317" fill-rule="evenodd"></path><path id="path2" d="M101.200 157.392 C 98.056 157.998,92.869 159.254,88.800 160.393 C 84.664 161.550,78.829 162.395,74.949 162.398 C 70.946 162.401,71.342 161.928,68.558 170.033 C 64.933 180.587,65.098 182.513,69.710 183.545 C 71.846 184.023,72.008 184.143,72.380 185.527 C 74.009 191.591,74.089 191.782,75.572 193.182 C 76.398 193.962,78.550 195.500,80.354 196.600 C 84.728 199.266,91.612 206.104,93.367 209.526 C 95.465 213.616,95.713 232.834,93.768 240.584 C 93.430 241.931,94.256 243.277,95.327 243.124 C 97.900 242.758,100.158 220.045,98.401 212.205 C 97.808 209.559,93.878 203.046,92.051 201.683 C 88.210 198.816,82.400 193.120,82.400 192.220 C 82.400 190.136,85.555 189.436,89.570 190.628 C 93.441 191.778,96.800 190.443,96.800 187.755 C 96.800 186.256,96.031 185.353,92.900 183.177 C 89.896 181.088,91.120 178.806,94.963 179.333 C 97.134 179.630,97.210 179.530,97.398 176.136 C 97.654 171.492,100.125 170.656,102.200 174.511 C 103.110 176.203,103.572 176.335,104.600 175.200 C 107.788 171.678,109.410 176.501,107.156 182.800 C 103.730 192.374,103.357 195.628,105.050 201.200 C 106.584 206.251,108.635 214.223,109.211 217.372 C 109.726 220.191,109.540 237.939,108.974 239.877 C 108.120 242.807,119.764 245.436,125.440 243.596 C 128.604 242.570,130.400 241.535,130.400 240.738 C 130.400 240.312,131.273 238.667,132.340 237.082 C 136.189 231.365,140.571 221.979,143.492 213.200 C 145.831 206.169,145.523 195.673,142.755 188.052 C 142.306 186.813,141.781 185.294,141.590 184.676 C 139.316 177.327,127.200 164.726,119.400 161.599 C 118.080 161.070,116.550 160.405,116.000 160.121 C 113.839 159.006,113.340 159.628,114.164 162.404 C 115.410 166.598,114.356 166.564,110.212 162.277 C 106.905 158.856,104.542 156.766,104.069 156.845 C 103.921 156.870,102.630 157.116,101.200 157.392 M76.528 168.637 C 78.252 169.225,78.566 169.222,80.531 168.604 C 84.737 167.281,86.158 168.533,84.622 172.208 C 83.613 174.625,83.799 175.463,85.600 176.600 C 88.115 178.187,86.839 180.000,83.207 180.000 C 81.611 180.000,79.345 182.075,78.622 184.200 C 77.834 186.514,76.995 186.471,76.383 184.084 C 75.644 181.199,75.147 180.727,72.307 180.207 C 69.300 179.657,69.277 179.543,71.141 174.400 C 71.818 172.530,72.379 170.541,72.386 169.980 C 72.414 167.956,73.498 167.605,76.528 168.637 M119.175 185.587 C 119.607 185.818,120.380 185.835,121.095 185.630 C 122.975 185.091,123.454 185.617,122.824 187.527 C 122.536 188.400,122.413 189.298,122.551 189.521 C 123.034 190.302,122.321 191.200,121.219 191.200 C 120.617 191.200,119.791 191.568,119.384 192.018 C 118.341 193.170,117.033 192.890,116.871 191.479 C 116.785 190.725,116.422 190.237,115.761 189.985 C 114.435 189.481,114.070 188.416,115.038 187.876 C 115.457 187.642,116.245 186.944,116.789 186.325 C 117.876 185.089,118.110 185.017,119.175 185.587 M114.440 197.391 C 116.106 197.025,116.797 197.709,116.515 199.443 C 116.336 200.546,116.472 201.008,117.167 201.655 C 118.402 202.806,118.102 203.797,116.514 203.814 C 115.813 203.821,115.185 203.911,115.120 204.014 C 115.054 204.116,114.723 204.740,114.385 205.400 C 113.405 207.311,111.947 207.064,111.253 204.870 C 110.902 203.761,110.363 202.984,109.753 202.706 C 108.592 202.177,108.513 200.982,109.600 200.400 C 110.058 200.155,110.400 199.562,110.400 199.014 C 110.400 197.607,111.450 196.692,112.451 197.227 C 112.889 197.462,113.784 197.535,114.440 197.391 M127.371 201.779 C 129.235 201.429,129.934 202.595,128.973 204.452 C 128.463 205.438,128.417 205.920,128.761 206.674 C 129.421 208.124,129.319 208.391,127.868 208.997 C 126.972 209.372,126.220 210.149,125.572 211.371 C 123.867 214.585,122.800 214.279,122.800 210.576 C 122.800 208.357,122.700 208.000,122.076 208.000 C 119.748 208.000,119.607 206.147,121.836 204.832 C 122.651 204.351,123.200 203.711,123.200 203.242 C 123.200 201.999,124.301 201.119,125.233 201.618 C 125.661 201.847,126.623 201.919,127.371 201.779 " stroke="none" fill="#2094f1" fill-rule="evenodd"></path><path id="path3" d="M263.204 145.592 C 262.336 147.214,254.974 165.624,252.764 171.700 C 246.729 188.291,246.784 186.800,252.204 186.800 C 255.806 186.800,255.992 186.639,257.418 182.306 C 258.954 177.642,258.137 178.000,267.240 178.000 C 276.414 178.000,275.709 177.680,277.207 182.528 C 278.394 186.373,278.931 186.800,282.567 186.800 C 287.467 186.800,287.623 186.492,285.435 181.140 C 284.684 179.303,283.084 175.280,281.880 172.200 C 275.586 156.103,274.227 152.679,272.727 149.122 C 270.862 144.701,270.998 144.800,266.781 144.800 C 264.048 144.800,263.572 144.906,263.204 145.592 M115.400 145.658 C 113.246 146.825,108.676 149.552,105.865 151.347 C 102.594 153.436,102.553 153.507,103.240 155.973 C 103.354 156.382,102.768 156.694,101.200 157.058 L 99.000 157.570 101.000 157.362 C 102.100 157.248,103.295 157.069,103.654 156.965 C 104.014 156.860,104.850 157.231,105.512 157.788 C 106.174 158.344,106.925 158.800,107.181 158.800 C 107.438 158.800,107.544 158.968,107.417 159.172 C 107.291 159.377,107.398 159.675,107.655 159.834 C 107.948 160.015,108.016 159.950,107.838 159.662 C 107.681 159.408,107.726 159.200,107.937 159.200 C 108.148 159.200,108.693 159.830,109.147 160.600 C 110.600 163.063,112.250 162.153,111.491 159.308 C 111.244 158.382,111.140 157.526,111.261 157.406 C 112.010 156.657,123.607 162.427,125.964 164.722 C 126.274 165.024,127.238 165.719,128.107 166.267 C 132.199 168.851,139.512 177.022,141.786 181.553 C 144.441 186.841,146.848 198.387,145.300 198.403 C 145.135 198.405,144.938 201.600,144.863 205.503 C 144.708 213.532,144.493 214.467,140.766 223.296 C 137.175 231.804,132.565 239.717,130.153 241.516 C 129.120 242.285,129.086 242.376,129.830 242.387 C 131.844 242.418,136.124 235.452,141.988 222.600 C 148.103 209.198,148.200 192.574,142.231 180.875 C 137.753 172.097,125.657 161.701,115.562 157.952 C 110.446 156.052,110.016 156.218,110.937 159.739 C 111.343 161.293,110.942 161.038,107.986 157.863 L 105.438 155.125 106.419 154.384 C 107.949 153.228,112.766 150.400,113.205 150.400 C 113.422 150.400,113.600 150.854,113.600 151.409 C 113.600 152.556,114.000 152.760,118.200 153.754 C 134.439 157.599,149.359 174.624,152.595 193.002 C 155.273 208.209,151.881 220.749,140.721 236.895 C 136.661 242.769,136.286 244.134,138.923 243.447 C 139.703 243.244,147.200 233.026,147.200 232.166 C 147.200 232.002,147.993 230.592,148.963 229.034 C 166.578 200.726,149.769 157.890,118.337 150.986 C 117.072 150.708,116.806 149.625,117.800 148.800 C 119.758 147.175,117.663 144.431,115.400 145.658 M178.554 145.660 C 177.813 146.827,178.114 186.033,178.867 186.436 C 179.839 186.956,197.131 186.890,199.680 186.357 C 218.504 182.418,219.397 151.800,200.849 146.275 C 197.392 145.246,179.137 144.741,178.554 145.660 M218.998 145.506 C 218.509 145.863,218.437 185.548,218.924 186.300 C 219.369 186.989,245.011 187.029,245.436 186.342 C 245.865 185.648,246.734 180.693,246.523 180.143 C 246.221 179.355,245.531 179.273,242.184 179.623 C 240.433 179.807,236.441 179.967,233.314 179.978 C 226.439 180.005,226.800 180.356,226.800 173.634 L 226.800 168.815 227.856 168.550 C 228.437 168.404,232.311 168.381,236.465 168.499 C 245.116 168.744,244.557 168.979,244.904 164.954 C 245.218 161.301,245.693 161.483,235.738 161.439 L 227.000 161.400 226.886 157.258 C 226.729 151.605,226.012 152.000,236.425 152.000 C 242.788 152.000,245.233 151.870,245.450 151.519 C 246.137 150.408,245.308 146.171,244.275 145.514 C 243.663 145.125,219.530 145.117,218.998 145.506 M290.108 145.525 C 289.731 145.765,289.637 149.104,289.708 159.819 C 289.758 167.508,289.731 176.564,289.646 179.943 C 289.467 187.112,289.280 186.788,293.600 186.788 C 298.180 186.788,297.814 188.088,297.668 172.316 L 297.541 158.600 298.523 159.600 C 299.063 160.150,303.684 166.180,308.793 173.000 C 319.795 187.689,318.920 186.800,322.368 186.800 C 326.647 186.800,326.276 188.659,326.527 165.953 C 326.777 143.259,327.142 145.198,322.620 145.206 C 317.656 145.216,317.976 144.121,318.476 159.347 C 318.697 166.097,318.769 171.905,318.634 172.255 C 318.220 173.335,318.466 173.635,303.253 153.432 C 300.092 149.234,297.302 145.668,297.053 145.506 C 296.447 145.113,290.731 145.129,290.108 145.525 M270.693 146.100 C 270.908 146.375,272.745 150.830,274.774 156.000 C 276.804 161.170,278.983 166.660,279.616 168.200 C 282.577 175.397,286.000 184.527,286.000 185.226 C 286.000 185.926,285.698 186.000,282.862 186.000 C 279.100 186.000,278.875 185.817,277.600 181.724 C 276.139 177.035,276.518 177.200,267.200 177.200 C 258.101 177.200,258.116 177.194,257.206 180.728 C 255.875 185.894,255.769 186.000,251.951 186.000 C 249.078 186.000,248.800 185.930,248.800 185.208 C 248.800 183.725,262.571 147.635,263.723 146.100 C 263.966 145.775,265.185 145.600,267.200 145.600 C 269.206 145.600,270.440 145.777,270.693 146.100 M117.525 147.086 C 117.594 147.569,117.258 148.495,116.778 149.144 C 115.602 150.735,115.803 150.922,120.260 152.379 C 138.453 158.323,151.445 173.809,154.842 193.600 C 156.765 204.805,153.942 220.376,148.518 228.475 C 147.882 229.424,146.921 231.057,146.381 232.105 C 145.842 233.153,144.500 235.257,143.400 236.781 C 142.300 238.305,140.893 240.282,140.274 241.176 C 139.270 242.625,138.000 243.349,138.000 242.472 C 138.000 242.292,139.487 239.997,141.303 237.372 C 144.280 233.073,146.429 229.648,148.692 225.600 C 157.197 210.383,155.503 187.831,144.667 172.019 C 138.654 163.245,123.956 152.841,117.526 152.806 C 114.692 152.790,113.992 151.877,114.991 149.500 C 115.532 148.215,114.072 148.725,110.135 151.200 C 108.035 152.520,106.166 153.600,105.981 153.600 C 105.796 153.600,105.367 153.998,105.026 154.484 C 104.535 155.186,104.306 155.266,103.913 154.873 C 103.103 154.063,103.890 153.332,108.800 150.329 C 116.492 145.627,117.275 145.335,117.525 147.086 M200.660 146.909 C 216.931 151.631,218.231 178.626,202.486 184.858 C 199.638 185.985,179.734 186.556,178.939 185.534 C 178.658 185.173,178.631 182.475,178.857 177.200 C 179.040 172.910,179.076 164.422,178.937 158.339 C 178.798 152.255,178.803 146.969,178.947 146.593 C 179.300 145.673,197.305 145.935,200.660 146.909 M244.310 146.500 C 244.535 146.775,244.782 147.900,244.859 149.000 L 245.000 151.000 236.200 151.235 C 231.360 151.364,227.368 151.499,227.329 151.535 C 226.084 152.668,226.000 153.011,226.006 156.929 C 226.015 162.624,225.257 162.196,235.377 162.224 C 245.292 162.252,244.551 161.988,244.189 165.369 L 243.907 168.000 235.433 168.000 C 225.224 168.000,226.000 167.520,226.000 173.836 C 226.000 181.229,226.542 181.493,239.488 180.406 C 246.278 179.836,246.188 179.794,245.509 183.229 L 245.000 185.800 232.354 185.906 C 222.046 185.992,219.623 185.910,219.253 185.464 C 218.918 185.060,218.902 182.313,219.192 174.958 C 219.414 169.330,219.450 161.087,219.276 156.000 C 219.106 151.050,219.039 146.775,219.126 146.500 C 219.249 146.114,222.099 146.000,231.594 146.000 C 240.956 146.000,244.000 146.120,244.310 146.500 M303.987 155.472 C 316.342 171.807,318.222 174.202,318.615 174.097 C 318.851 174.034,319.014 168.772,319.037 160.497 C 319.058 153.074,319.103 146.775,319.137 146.500 C 319.182 146.147,320.143 146.000,322.413 146.000 C 324.622 146.000,325.680 146.156,325.802 146.500 C 325.899 146.775,325.849 155.730,325.689 166.400 L 325.400 185.800 322.600 185.903 C 319.084 186.032,320.364 187.276,310.350 174.000 C 305.620 167.730,300.888 161.466,299.832 160.081 C 296.941 156.285,297.000 156.042,297.000 171.836 L 297.000 185.800 293.962 185.916 C 289.843 186.073,290.030 186.584,290.406 176.200 C 290.580 171.360,290.622 162.577,290.499 156.683 L 290.274 145.966 293.624 146.083 L 296.974 146.200 303.987 155.472 M186.800 151.695 L 185.800 152.223 185.695 165.858 C 185.572 181.723,185.190 180.459,190.189 180.721 C 196.895 181.073,201.140 179.624,203.728 176.098 C 209.883 167.713,207.059 155.201,198.338 152.214 C 195.564 151.264,188.239 150.934,186.800 151.695 M198.820 153.056 C 208.536 157.479,208.916 173.927,199.418 178.918 C 197.737 179.801,189.703 180.414,187.396 179.835 L 186.400 179.585 186.400 166.026 C 186.400 155.564,186.514 152.416,186.900 152.245 C 188.257 151.642,197.026 152.239,198.820 153.056 M265.655 156.891 C 265.135 158.271,264.009 161.178,263.152 163.351 C 260.185 170.871,260.345 171.200,266.948 171.200 C 274.112 171.200,274.188 171.058,271.201 163.277 C 267.421 153.426,267.099 153.056,265.655 156.891 M269.953 162.006 C 273.294 170.563,273.422 170.172,267.233 170.313 C 264.501 170.375,262.115 170.275,261.930 170.090 C 261.423 169.583,266.514 155.600,267.206 155.600 C 267.341 155.600,268.577 158.483,269.953 162.006 M96.600 158.000 L 95.800 158.344 96.600 158.344 C 97.040 158.344,97.760 158.189,98.200 158.000 L 99.000 157.656 98.200 157.656 C 97.760 157.656,97.040 157.811,96.600 158.000 M93.200 158.800 C 92.408 159.054,92.367 159.120,93.000 159.120 C 93.440 159.120,94.250 158.976,94.800 158.800 C 95.592 158.546,95.633 158.480,95.000 158.480 C 94.560 158.480,93.750 158.624,93.200 158.800 M88.800 160.017 C 87.590 160.421,86.842 160.762,87.138 160.776 C 87.823 160.807,92.000 159.601,92.000 159.372 C 92.000 159.072,91.064 159.261,88.800 160.017 M83.800 161.200 C 82.722 161.474,82.702 161.506,83.600 161.513 C 84.150 161.517,85.050 161.376,85.600 161.200 C 86.944 160.769,85.492 160.769,83.800 161.200 M72.267 161.930 C 71.134 162.060,69.587 164.453,69.637 166.000 C 69.648 166.330,69.913 165.899,70.227 165.042 C 71.155 162.511,71.353 162.404,75.149 162.365 C 77.047 162.346,79.500 162.191,80.600 162.022 C 82.615 161.712,74.915 161.626,72.267 161.930 M67.846 171.046 C 67.492 172.085,67.272 173.005,67.356 173.090 C 67.441 173.174,67.800 172.393,68.154 171.354 C 68.508 170.315,68.728 169.395,68.644 169.310 C 68.559 169.226,68.200 170.007,67.846 171.046 M66.600 174.400 C 66.450 174.873,66.417 175.350,66.527 175.460 C 66.637 175.570,66.850 175.273,67.000 174.800 C 67.150 174.327,67.183 173.850,67.073 173.740 C 66.963 173.630,66.750 173.927,66.600 174.400 M99.051 174.700 C 98.145 177.835,98.565 184.800,99.660 184.800 C 100.546 184.800,101.321 181.770,101.247 178.600 C 101.156 174.710,100.964 174.000,100.000 174.000 C 99.590 174.000,99.163 174.315,99.051 174.700 M100.487 177.900 C 100.668 181.097,100.302 183.034,99.601 182.600 C 98.928 182.184,99.317 174.800,100.012 174.800 C 100.177 174.800,100.391 176.195,100.487 177.900 M65.852 176.900 C 65.160 179.481,65.969 183.200,67.223 183.200 C 67.430 183.200,67.216 182.816,66.746 182.346 C 65.987 181.587,65.918 181.191,66.123 178.746 C 66.360 175.919,66.273 175.328,65.852 176.900 M82.939 176.675 C 83.346 177.156,83.560 177.741,83.416 177.975 C 83.271 178.209,83.343 178.400,83.576 178.400 C 84.308 178.400,84.038 177.356,83.100 176.562 L 82.200 175.800 82.939 176.675 M104.704 176.900 C 104.381 177.395,103.369 179.780,102.455 182.200 C 99.135 190.997,95.198 193.601,88.232 191.609 C 83.070 190.133,81.513 192.113,85.505 195.077 C 94.333 201.630,98.077 206.093,99.377 211.609 C 100.085 214.610,100.258 229.717,99.617 232.523 C 99.406 233.445,98.854 235.942,98.391 238.071 C 97.293 243.110,95.112 244.927,93.796 241.900 C 93.159 240.434,92.989 240.992,93.590 242.574 C 94.078 243.856,96.667 244.052,97.722 242.886 C 99.463 240.962,100.895 230.423,100.695 221.000 C 100.413 207.667,99.458 205.628,89.668 197.449 C 82.904 191.798,82.601 190.829,88.075 192.365 C 95.617 194.481,100.219 191.281,103.368 181.730 C 103.961 179.932,104.705 178.245,105.022 177.982 C 105.954 177.208,105.337 180.672,103.552 186.235 C 101.426 192.858,101.427 195.501,103.554 202.840 C 107.440 216.242,107.878 220.169,107.199 235.485 L 107.000 239.971 108.322 241.183 C 109.674 242.423,110.892 243.201,111.474 243.199 C 111.653 243.198,111.215 242.840,110.500 242.404 C 109.785 241.968,109.200 241.457,109.200 241.267 C 109.200 241.078,108.820 240.490,108.356 239.961 C 107.556 239.051,107.529 238.767,107.856 234.600 C 108.336 228.459,108.218 218.662,107.628 215.800 C 106.651 211.062,105.497 206.542,104.410 203.200 C 102.012 195.829,101.983 193.361,104.220 186.600 C 106.791 178.829,107.068 173.282,104.704 176.900 M93.400 180.800 C 93.115 181.262,93.298 181.612,94.975 183.800 C 97.076 186.544,98.291 186.511,96.867 183.748 C 95.516 181.126,93.997 179.834,93.400 180.800 M76.562 181.333 C 76.693 181.736,76.800 182.141,76.800 182.233 C 76.800 182.713,77.477 182.288,77.968 181.500 C 78.489 180.664,78.479 180.641,77.834 181.174 C 77.230 181.673,77.086 181.673,76.732 181.174 C 76.409 180.719,76.374 180.752,76.562 181.333 M68.600 183.600 C 69.040 183.789,69.760 183.938,70.200 183.932 C 70.843 183.923,70.804 183.857,70.000 183.600 C 68.632 183.162,67.581 183.162,68.600 183.600 M72.047 185.000 C 71.967 185.909,73.252 190.534,73.981 191.963 C 74.598 193.172,75.647 194.039,78.883 196.013 C 86.279 200.525,92.794 207.662,93.845 212.400 C 94.264 214.289,94.336 214.402,94.358 213.200 C 94.427 209.276,87.312 200.842,80.354 196.600 C 75.696 193.760,74.196 192.229,73.479 189.582 C 72.417 185.666,72.082 184.594,72.047 185.000 M116.789 186.325 C 116.245 186.944,115.457 187.642,115.038 187.876 C 114.070 188.416,114.435 189.481,115.761 189.985 C 116.422 190.237,116.785 190.725,116.871 191.479 C 117.033 192.890,118.341 193.170,119.384 192.018 C 119.791 191.568,120.617 191.200,121.219 191.200 C 122.321 191.200,123.034 190.302,122.551 189.521 C 122.413 189.298,122.536 188.400,122.824 187.527 C 123.454 185.617,122.975 185.091,121.095 185.630 C 120.380 185.835,119.607 185.818,119.175 185.587 C 118.110 185.017,117.876 185.089,116.789 186.325 M120.900 186.486 C 122.394 186.419,122.732 186.698,122.031 187.420 C 121.828 187.629,121.603 188.340,121.531 189.000 C 121.434 189.891,121.168 190.233,120.499 190.328 C 120.004 190.398,119.412 190.803,119.185 191.228 C 118.567 192.384,117.732 192.160,117.453 190.763 C 117.298 189.989,116.905 189.448,116.403 189.317 C 115.479 189.075,115.306 188.000,116.191 188.000 C 116.516 188.000,117.082 187.541,117.450 186.980 C 117.916 186.269,118.313 186.050,118.759 186.256 C 119.112 186.419,120.075 186.523,120.900 186.486 M111.028 197.429 C 110.683 197.775,110.400 198.488,110.400 199.014 C 110.400 199.562,110.058 200.155,109.600 200.400 C 108.513 200.982,108.592 202.177,109.753 202.706 C 110.363 202.984,110.902 203.761,111.253 204.870 C 111.947 207.064,113.405 207.311,114.385 205.400 C 114.723 204.740,115.054 204.116,115.120 204.014 C 115.185 203.911,115.813 203.821,116.514 203.814 C 118.102 203.797,118.402 202.806,117.167 201.655 C 116.472 201.008,116.336 200.546,116.515 199.443 C 116.797 197.709,116.106 197.025,114.440 197.391 C 113.784 197.535,112.889 197.462,112.451 197.227 C 111.840 196.900,111.510 196.947,111.028 197.429 M115.677 199.521 C 115.610 200.201,115.840 201.194,116.189 201.727 C 116.804 202.665,116.788 202.702,115.699 202.920 C 114.908 203.078,114.368 203.577,113.879 204.603 C 113.053 206.336,112.363 206.256,111.898 204.373 C 111.712 203.618,111.189 202.685,110.737 202.301 C 109.946 201.629,109.950 201.315,110.769 200.000 C 110.974 199.670,111.229 199.112,111.335 198.761 C 111.762 197.349,115.822 198.060,115.677 199.521 M123.828 201.829 C 123.483 202.175,123.200 202.810,123.200 203.242 C 123.200 203.711,122.651 204.351,121.836 204.832 C 119.607 206.147,119.748 208.000,122.076 208.000 C 122.700 208.000,122.800 208.357,122.800 210.576 C 122.800 214.279,123.867 214.585,125.572 211.371 C 126.220 210.149,126.972 209.372,127.868 208.997 C 129.319 208.391,129.421 208.124,128.761 206.674 C 128.417 205.920,128.463 205.438,128.973 204.452 C 129.934 202.595,129.235 201.429,127.371 201.779 C 126.623 201.919,125.661 201.847,125.233 201.618 C 124.644 201.302,124.304 201.353,123.828 201.829 M128.457 202.941 C 128.598 203.143,128.459 203.918,128.148 204.663 C 127.717 205.695,127.688 206.217,128.028 206.852 C 128.520 207.772,128.215 208.249,127.000 208.463 C 126.528 208.546,125.790 209.380,125.200 210.500 C 123.916 212.936,123.600 212.892,123.600 210.280 C 123.600 208.063,123.129 207.200,121.920 207.200 C 120.799 207.200,121.073 206.086,122.357 205.422 C 122.993 205.093,123.688 204.324,123.901 203.712 C 124.301 202.564,127.781 201.975,128.457 202.941 M304.161 204.594 C 291.136 207.428,284.193 223.960,290.817 236.367 C 299.717 253.038,323.484 249.822,327.834 231.359 C 331.570 215.502,319.056 201.354,304.161 204.594 M178.433 205.500 C 177.427 206.323,176.619 210.280,177.289 211.100 C 177.589 211.466,179.639 211.602,184.949 211.606 C 188.937 211.609,192.452 211.772,192.761 211.967 C 193.453 212.406,193.393 212.512,184.082 227.178 C 175.381 240.884,175.783 240.051,176.341 243.224 C 176.931 246.569,176.143 246.387,190.051 246.394 C 204.035 246.401,202.912 246.730,203.573 242.429 C 204.212 238.271,204.027 238.121,199.043 238.734 C 195.129 239.214,185.600 239.380,185.600 238.967 C 185.600 238.520,189.164 232.696,193.414 226.200 C 203.721 210.444,205.050 207.341,202.311 205.423 C 200.894 204.430,179.657 204.499,178.433 205.500 M208.800 205.176 C 208.150 205.557,207.910 244.884,208.552 245.922 C 209.016 246.673,215.764 246.566,216.402 245.798 C 216.787 245.334,216.835 243.363,216.610 237.215 L 216.319 229.236 217.260 229.005 C 217.777 228.878,222.340 228.825,227.400 228.887 L 236.600 229.000 236.603 237.200 C 236.607 247.058,236.291 246.400,241.010 246.400 C 245.933 246.400,245.751 246.782,245.171 237.703 C 244.880 233.133,244.818 226.156,244.997 218.134 C 245.320 203.696,245.659 204.800,240.903 204.800 C 236.682 204.800,236.827 204.495,236.705 213.600 L 236.600 221.400 226.600 221.400 L 216.600 221.400 216.600 213.490 C 216.600 206.895,216.500 205.515,216.000 205.196 C 215.250 204.716,209.611 204.701,208.800 205.176 M251.119 205.201 C 249.546 206.166,250.717 237.866,252.460 241.506 C 255.168 247.160,273.143 248.714,279.963 243.883 C 283.694 241.241,283.725 241.076,284.100 222.212 C 284.478 203.181,284.861 204.800,279.973 204.800 C 275.653 204.800,275.954 203.581,276.030 220.721 C 276.112 239.487,276.222 239.223,268.156 239.532 C 259.030 239.881,259.000 239.819,259.000 220.748 C 259.000 212.455,258.850 205.519,258.667 205.335 C 258.166 204.832,251.901 204.720,251.119 205.201 M313.098 205.368 C 323.369 208.102,330.060 219.792,327.425 230.400 C 321.954 252.432,293.381 251.842,289.288 229.613 C 286.552 214.750,299.358 201.710,313.098 205.368 M202.285 206.277 C 202.428 206.650,202.553 207.775,202.563 208.777 C 202.581 210.711,203.028 209.920,193.513 224.800 C 192.176 226.890,190.237 229.950,189.204 231.600 C 188.171 233.250,186.735 235.537,186.013 236.683 C 183.717 240.330,185.061 240.582,200.162 239.336 L 203.325 239.075 203.049 241.421 C 202.897 242.711,202.670 244.179,202.543 244.683 L 202.313 245.600 189.980 245.600 C 181.667 245.600,177.561 245.461,177.383 245.173 C 177.238 244.938,177.025 243.709,176.910 242.442 L 176.701 240.139 180.296 234.369 C 182.273 231.196,185.054 226.800,186.475 224.600 C 191.455 216.891,194.068 212.353,193.851 211.788 C 193.673 211.325,192.129 211.196,185.716 211.109 L 177.800 211.000 177.906 209.310 C 177.965 208.380,178.185 207.165,178.396 206.610 L 178.780 205.600 190.403 205.600 C 200.954 205.600,202.049 205.662,202.285 206.277 M215.800 213.712 C 215.800 220.310,215.900 221.688,216.400 222.006 C 217.263 222.555,235.839 222.514,236.872 221.961 C 237.660 221.540,237.688 221.228,237.588 214.061 C 237.531 209.958,237.510 206.368,237.542 206.084 C 237.586 205.697,238.473 205.598,241.100 205.684 L 244.600 205.800 244.541 209.600 C 244.459 214.827,244.455 236.510,244.535 241.400 L 244.600 245.400 241.000 245.400 L 237.400 245.400 237.539 237.350 C 237.717 227.054,238.815 228.000,226.685 228.000 C 214.808 228.000,216.000 226.972,216.000 237.214 L 216.000 245.600 212.489 245.600 L 208.977 245.600 209.034 225.700 C 209.065 214.755,209.115 205.748,209.145 205.684 C 209.175 205.620,210.685 205.620,212.500 205.684 L 215.800 205.800 215.800 213.712 M258.200 220.600 C 258.200 236.889,258.206 236.928,260.805 238.865 C 262.837 240.380,270.188 240.747,273.167 239.484 C 276.743 237.967,276.842 237.462,276.799 221.009 C 276.779 213.304,276.771 206.678,276.781 206.284 C 276.798 205.644,277.167 205.581,280.300 205.684 L 283.800 205.800 283.767 209.400 C 283.518 236.462,282.955 241.170,279.699 243.399 C 274.603 246.887,258.697 246.744,254.630 243.173 C 251.993 240.857,251.912 240.334,251.489 222.710 C 251.036 203.853,250.699 205.536,254.894 205.684 L 258.200 205.800 258.200 220.600 M303.320 212.423 C 294.858 216.528,292.955 228.923,299.665 236.232 C 306.859 244.066,319.649 239.211,321.116 228.089 C 322.630 216.613,312.701 207.873,303.320 212.423 M313.194 212.915 C 318.473 215.408,321.570 222.010,320.436 228.353 C 318.156 241.111,302.995 243.565,297.571 232.054 C 292.237 220.734,302.675 207.947,313.194 212.915 M94.600 224.453 C 94.600 229.814,94.715 233.120,94.857 231.800 C 95.205 228.539,95.219 218.163,94.877 216.253 C 94.725 215.402,94.600 219.092,94.600 224.453 M93.836 237.139 C 93.675 238.755,93.631 240.164,93.737 240.270 C 94.001 240.534,94.531 235.390,94.307 234.730 C 94.209 234.439,93.997 235.522,93.836 237.139 M112.600 243.590 C 113.364 243.928,115.914 244.157,115.567 243.856 C 115.475 243.776,114.590 243.604,113.600 243.473 C 112.398 243.314,112.066 243.353,112.600 243.590 M118.912 244.295 C 119.964 244.377,121.584 244.376,122.512 244.292 C 123.440 244.208,122.580 244.141,120.600 244.142 C 118.620 244.143,117.860 244.212,118.912 244.295 " stroke="none" fill="#9da4a6" fill-rule="evenodd"></path><path id="path4" d="M74.219 170.100 C 74.133 170.375,73.943 171.320,73.798 172.200 C 73.652 173.080,73.078 174.640,72.522 175.666 C 71.370 177.790,71.533 178.400,73.254 178.400 C 74.457 178.400,76.418 179.914,76.886 181.204 C 77.049 181.654,77.443 181.435,78.492 180.314 C 79.499 179.237,80.341 178.755,81.550 178.562 C 83.636 178.228,83.866 177.864,82.826 176.542 C 81.840 175.288,81.806 174.650,82.608 172.378 C 83.397 170.140,82.993 169.730,80.645 170.387 C 79.116 170.815,78.562 170.794,76.952 170.245 C 74.673 169.469,74.420 169.455,74.219 170.100 M117.450 186.980 C 117.082 187.541,116.516 188.000,116.191 188.000 C 115.306 188.000,115.479 189.075,116.403 189.317 C 116.905 189.448,117.298 189.989,117.453 190.763 C 117.732 192.160,118.567 192.384,119.185 191.228 C 119.412 190.803,120.004 190.398,120.499 190.328 C 121.168 190.233,121.434 189.891,121.531 189.000 C 121.603 188.340,121.828 187.629,122.031 187.420 C 122.732 186.698,122.394 186.419,120.900 186.486 C 120.075 186.523,119.112 186.419,118.759 186.256 C 118.313 186.050,117.916 186.269,117.450 186.980 M111.335 198.761 C 111.229 199.112,110.974 199.670,110.769 200.000 C 109.950 201.315,109.946 201.629,110.737 202.301 C 111.189 202.685,111.712 203.618,111.898 204.373 C 112.363 206.256,113.053 206.336,113.879 204.603 C 114.368 203.577,114.908 203.078,115.699 202.920 C 116.788 202.702,116.804 202.665,116.189 201.727 C 115.840 201.194,115.610 200.201,115.677 199.521 C 115.822 198.060,111.762 197.349,111.335 198.761 M123.901 203.712 C 123.688 204.324,122.993 205.093,122.357 205.422 C 121.073 206.086,120.799 207.200,121.920 207.200 C 123.129 207.200,123.600 208.063,123.600 210.280 C 123.600 212.892,123.916 212.936,125.200 210.500 C 125.790 209.380,126.528 208.546,127.000 208.463 C 128.215 208.249,128.520 207.772,128.028 206.852 C 127.688 206.217,127.717 205.695,128.148 204.663 C 128.889 202.890,128.595 202.571,126.244 202.587 C 124.471 202.599,124.253 202.703,123.901 203.712 " stroke="none" fill="#eae048" fill-rule="evenodd"></path></g></svg>